<mxfile host="Electron" modified="2024-03-12T03:52:16.613Z" agent="Mozilla/5.0 (Macintosh; Intel Mac OS X 10_15_7) AppleWebKit/537.36 (KHTML, like Gecko) draw.io/21.5.1 Chrome/112.0.5615.204 Electron/24.6.0 Safari/537.36" etag="TtxHmN30grb1HDNLjhKb" version="21.5.1" type="device">
  <diagram name="Page-1" id="yanQ3WUoxzE5hnDCjzH7">
    <mxGraphModel dx="3585" dy="1093" grid="1" gridSize="10" guides="1" tooltips="1" connect="1" arrows="1" fold="1" page="1" pageScale="1" pageWidth="850" pageHeight="1100" math="0" shadow="0">
      <root>
        <mxCell id="0" />
        <mxCell id="1" parent="0" />
        <mxCell id="Wixsv4hnN91RMwfABxU9-15" style="edgeStyle=orthogonalEdgeStyle;rounded=0;orthogonalLoop=1;jettySize=auto;html=1;entryX=0.5;entryY=1;entryDx=0;entryDy=0;" parent="1" source="Wixsv4hnN91RMwfABxU9-34" target="Wixsv4hnN91RMwfABxU9-6" edge="1">
          <mxGeometry relative="1" as="geometry" />
        </mxCell>
        <mxCell id="P2ACuwvenuWP9-W9ECjz-37" value="" style="verticalLabelPosition=bottom;verticalAlign=top;html=1;shape=mxgraph.basic.rect;fillColor2=none;strokeWidth=1;size=20;indent=5;movable=1;resizable=1;rotatable=1;deletable=1;editable=1;locked=0;connectable=1;" parent="1" vertex="1">
          <mxGeometry x="450" y="1110" width="1150" height="740" as="geometry" />
        </mxCell>
        <mxCell id="Wixsv4hnN91RMwfABxU9-40" style="edgeStyle=orthogonalEdgeStyle;rounded=0;orthogonalLoop=1;jettySize=auto;html=1;entryX=1.016;entryY=0.498;entryDx=0;entryDy=0;entryPerimeter=0;" parent="1" source="Wixsv4hnN91RMwfABxU9-2" target="Wixsv4hnN91RMwfABxU9-34" edge="1">
          <mxGeometry relative="1" as="geometry">
            <Array as="points">
              <mxPoint x="690" y="1645" />
              <mxPoint x="690" y="1450" />
            </Array>
          </mxGeometry>
        </mxCell>
        <mxCell id="Wixsv4hnN91RMwfABxU9-46" style="edgeStyle=orthogonalEdgeStyle;rounded=0;orthogonalLoop=1;jettySize=auto;html=1;entryX=0.445;entryY=0.995;entryDx=0;entryDy=0;entryPerimeter=0;" parent="1" source="Wixsv4hnN91RMwfABxU9-2" target="Wixsv4hnN91RMwfABxU9-42" edge="1">
          <mxGeometry relative="1" as="geometry" />
        </mxCell>
        <mxCell id="Wixsv4hnN91RMwfABxU9-2" value="&lt;font style=&quot;font-size: 18px;&quot;&gt;nginx Ingress Controller&lt;/font&gt;" style="rounded=1;whiteSpace=wrap;html=1;" parent="1" vertex="1">
          <mxGeometry x="810" y="1590" width="210" height="110" as="geometry" />
        </mxCell>
        <mxCell id="P2ACuwvenuWP9-W9ECjz-36" style="edgeStyle=orthogonalEdgeStyle;rounded=0;orthogonalLoop=1;jettySize=auto;html=1;" parent="1" source="Wixsv4hnN91RMwfABxU9-3" target="Wixsv4hnN91RMwfABxU9-27" edge="1">
          <mxGeometry relative="1" as="geometry" />
        </mxCell>
        <mxCell id="Wixsv4hnN91RMwfABxU9-3" value="&lt;font style=&quot;font-size: 18px;&quot;&gt;gateway&lt;/font&gt;" style="rounded=1;whiteSpace=wrap;html=1;" parent="1" vertex="1">
          <mxGeometry x="815" y="1235" width="210" height="115" as="geometry" />
        </mxCell>
        <mxCell id="QTuUbilTjJERlWPjvQFS-7" style="edgeStyle=orthogonalEdgeStyle;rounded=0;orthogonalLoop=1;jettySize=auto;html=1;entryX=0;entryY=0.5;entryDx=0;entryDy=0;entryPerimeter=0;" edge="1" parent="1" source="Wixsv4hnN91RMwfABxU9-4" target="QTuUbilTjJERlWPjvQFS-2">
          <mxGeometry relative="1" as="geometry" />
        </mxCell>
        <mxCell id="Wixsv4hnN91RMwfABxU9-4" value="&lt;font style=&quot;font-size: 18px;&quot;&gt;user&lt;/font&gt;" style="rounded=1;whiteSpace=wrap;html=1;" parent="1" vertex="1">
          <mxGeometry x="1400" y="1190" width="120" height="60" as="geometry" />
        </mxCell>
        <mxCell id="QTuUbilTjJERlWPjvQFS-6" style="edgeStyle=orthogonalEdgeStyle;rounded=0;orthogonalLoop=1;jettySize=auto;html=1;exitX=1;exitY=0.5;exitDx=0;exitDy=0;" edge="1" parent="1" source="Wixsv4hnN91RMwfABxU9-5" target="QTuUbilTjJERlWPjvQFS-2">
          <mxGeometry relative="1" as="geometry" />
        </mxCell>
        <mxCell id="Wixsv4hnN91RMwfABxU9-5" value="&lt;font style=&quot;font-size: 18px;&quot;&gt;underwriter&lt;/font&gt;" style="rounded=1;whiteSpace=wrap;html=1;" parent="1" vertex="1">
          <mxGeometry x="1400" y="1310" width="120" height="60" as="geometry" />
        </mxCell>
        <mxCell id="Wixsv4hnN91RMwfABxU9-6" value="&lt;font style=&quot;font-size: 18px;&quot;&gt;nginx frontends&lt;/font&gt;" style="rounded=1;whiteSpace=wrap;html=1;" parent="1" vertex="1">
          <mxGeometry x="510" y="1302.5" width="195" height="110" as="geometry" />
        </mxCell>
        <mxCell id="QTuUbilTjJERlWPjvQFS-5" style="edgeStyle=orthogonalEdgeStyle;rounded=0;orthogonalLoop=1;jettySize=auto;html=1;entryX=0;entryY=0.5;entryDx=0;entryDy=0;entryPerimeter=0;" edge="1" parent="1" source="Wixsv4hnN91RMwfABxU9-9" target="QTuUbilTjJERlWPjvQFS-2">
          <mxGeometry relative="1" as="geometry" />
        </mxCell>
        <mxCell id="Wixsv4hnN91RMwfABxU9-9" value="&lt;font style=&quot;font-size: 18px;&quot;&gt;bank&lt;/font&gt;" style="rounded=1;whiteSpace=wrap;html=1;" parent="1" vertex="1">
          <mxGeometry x="1400" y="1430" width="120" height="60" as="geometry" />
        </mxCell>
        <mxCell id="QTuUbilTjJERlWPjvQFS-8" style="edgeStyle=orthogonalEdgeStyle;rounded=0;orthogonalLoop=1;jettySize=auto;html=1;entryX=0;entryY=0.5;entryDx=0;entryDy=0;entryPerimeter=0;" edge="1" parent="1" source="Wixsv4hnN91RMwfABxU9-10" target="QTuUbilTjJERlWPjvQFS-2">
          <mxGeometry relative="1" as="geometry">
            <mxPoint x="1670" y="1540" as="targetPoint" />
          </mxGeometry>
        </mxCell>
        <mxCell id="Wixsv4hnN91RMwfABxU9-10" value="&lt;font style=&quot;font-size: 18px;&quot;&gt;account&lt;/font&gt;" style="rounded=1;whiteSpace=wrap;html=1;" parent="1" vertex="1">
          <mxGeometry x="1400" y="1540" width="120" height="60" as="geometry" />
        </mxCell>
        <mxCell id="QTuUbilTjJERlWPjvQFS-9" style="edgeStyle=orthogonalEdgeStyle;rounded=0;orthogonalLoop=1;jettySize=auto;html=1;entryX=0;entryY=0.5;entryDx=0;entryDy=0;entryPerimeter=0;" edge="1" parent="1" source="Wixsv4hnN91RMwfABxU9-11" target="QTuUbilTjJERlWPjvQFS-2">
          <mxGeometry relative="1" as="geometry" />
        </mxCell>
        <mxCell id="Wixsv4hnN91RMwfABxU9-11" value="&lt;font style=&quot;font-size: 18px;&quot;&gt;transaction&lt;/font&gt;" style="rounded=1;whiteSpace=wrap;html=1;" parent="1" vertex="1">
          <mxGeometry x="1400" y="1650" width="120" height="60" as="geometry" />
        </mxCell>
        <mxCell id="Wixsv4hnN91RMwfABxU9-27" value="" style="verticalLabelPosition=bottom;verticalAlign=top;html=1;shape=mxgraph.basic.polygon;polyCoords=[[0.25,0],[0.75,0],[1,0.25],[1,0.75],[0.75,1],[0.25,1],[0,0.75],[0,0.25]];polyline=0;" parent="1" vertex="1">
          <mxGeometry x="1130" y="1412.5" width="100" height="100" as="geometry" />
        </mxCell>
        <mxCell id="P2ACuwvenuWP9-W9ECjz-31" style="edgeStyle=orthogonalEdgeStyle;rounded=0;orthogonalLoop=1;jettySize=auto;html=1;entryX=0;entryY=0.5;entryDx=0;entryDy=0;" parent="1" source="Wixsv4hnN91RMwfABxU9-32" target="Wixsv4hnN91RMwfABxU9-4" edge="1">
          <mxGeometry relative="1" as="geometry" />
        </mxCell>
        <mxCell id="P2ACuwvenuWP9-W9ECjz-32" style="edgeStyle=orthogonalEdgeStyle;rounded=0;orthogonalLoop=1;jettySize=auto;html=1;entryX=0;entryY=0.5;entryDx=0;entryDy=0;" parent="1" source="Wixsv4hnN91RMwfABxU9-32" target="Wixsv4hnN91RMwfABxU9-5" edge="1">
          <mxGeometry relative="1" as="geometry" />
        </mxCell>
        <mxCell id="P2ACuwvenuWP9-W9ECjz-33" style="edgeStyle=orthogonalEdgeStyle;rounded=0;orthogonalLoop=1;jettySize=auto;html=1;entryX=0;entryY=0.5;entryDx=0;entryDy=0;" parent="1" source="Wixsv4hnN91RMwfABxU9-32" target="Wixsv4hnN91RMwfABxU9-9" edge="1">
          <mxGeometry relative="1" as="geometry" />
        </mxCell>
        <mxCell id="P2ACuwvenuWP9-W9ECjz-34" style="edgeStyle=orthogonalEdgeStyle;rounded=0;orthogonalLoop=1;jettySize=auto;html=1;entryX=0;entryY=0.5;entryDx=0;entryDy=0;" parent="1" source="Wixsv4hnN91RMwfABxU9-32" target="Wixsv4hnN91RMwfABxU9-10" edge="1">
          <mxGeometry relative="1" as="geometry" />
        </mxCell>
        <mxCell id="P2ACuwvenuWP9-W9ECjz-35" style="edgeStyle=orthogonalEdgeStyle;rounded=0;orthogonalLoop=1;jettySize=auto;html=1;entryX=0;entryY=0.5;entryDx=0;entryDy=0;" parent="1" source="Wixsv4hnN91RMwfABxU9-32" target="Wixsv4hnN91RMwfABxU9-11" edge="1">
          <mxGeometry relative="1" as="geometry" />
        </mxCell>
        <mxCell id="Wixsv4hnN91RMwfABxU9-32" value="&lt;font style=&quot;font-size: 18px;&quot;&gt;ClusterIP&lt;/font&gt;" style="text;html=1;align=center;verticalAlign=middle;resizable=0;points=[];autosize=1;strokeColor=none;fillColor=none;" parent="1" vertex="1">
          <mxGeometry x="1130" y="1442.5" width="100" height="40" as="geometry" />
        </mxCell>
        <mxCell id="Wixsv4hnN91RMwfABxU9-34" value="" style="verticalLabelPosition=bottom;verticalAlign=top;html=1;shape=mxgraph.basic.polygon;polyCoords=[[0.25,0],[0.75,0],[1,0.25],[1,0.75],[0.75,1],[0.25,1],[0,0.75],[0,0.25]];polyline=0;" parent="1" vertex="1">
          <mxGeometry x="557.5" y="1400" width="100" height="100" as="geometry" />
        </mxCell>
        <mxCell id="Wixsv4hnN91RMwfABxU9-36" value="&lt;font style=&quot;font-size: 17px;&quot;&gt;ClusterIP&lt;/font&gt;" style="text;html=1;align=center;verticalAlign=middle;resizable=0;points=[];autosize=1;strokeColor=none;fillColor=none;" parent="1" vertex="1">
          <mxGeometry x="565" y="1435" width="90" height="30" as="geometry" />
        </mxCell>
        <mxCell id="Wixsv4hnN91RMwfABxU9-37" value="" style="verticalLabelPosition=bottom;verticalAlign=top;html=1;shape=mxgraph.basic.polygon;polyCoords=[[0.25,0],[0.75,0],[1,0.25],[1,0.75],[0.75,1],[0.25,1],[0,0.75],[0,0.25]];polyline=0;" parent="1" vertex="1">
          <mxGeometry x="847.5" y="1680" width="135" height="120" as="geometry" />
        </mxCell>
        <mxCell id="Wixsv4hnN91RMwfABxU9-38" value="&lt;font style=&quot;font-size: 18px;&quot;&gt;LoadBalancer&lt;/font&gt;" style="text;html=1;align=center;verticalAlign=middle;resizable=0;points=[];autosize=1;strokeColor=none;fillColor=none;" parent="1" vertex="1">
          <mxGeometry x="847.5" y="1720" width="130" height="40" as="geometry" />
        </mxCell>
        <mxCell id="Wixsv4hnN91RMwfABxU9-42" value="" style="verticalLabelPosition=bottom;verticalAlign=top;html=1;shape=mxgraph.basic.polygon;polyCoords=[[0.25,0],[0.75,0],[1,0.25],[1,0.75],[0.75,1],[0.25,1],[0,0.75],[0,0.25]];polyline=0;" parent="1" vertex="1">
          <mxGeometry x="870" y="1335" width="100" height="100" as="geometry" />
        </mxCell>
        <mxCell id="Wixsv4hnN91RMwfABxU9-45" value="&lt;font style=&quot;font-size: 18px;&quot;&gt;ClusterIP&lt;/font&gt;" style="text;html=1;align=center;verticalAlign=middle;resizable=0;points=[];autosize=1;strokeColor=none;fillColor=none;" parent="1" vertex="1">
          <mxGeometry x="870" y="1365" width="100" height="40" as="geometry" />
        </mxCell>
        <mxCell id="P2ACuwvenuWP9-W9ECjz-38" value="&lt;font style=&quot;font-size: 45px;&quot;&gt;EC2 Node&lt;/font&gt;" style="text;html=1;align=center;verticalAlign=middle;resizable=0;points=[];autosize=1;strokeColor=none;fillColor=none;" parent="1" vertex="1">
          <mxGeometry x="460" y="1100" width="230" height="70" as="geometry" />
        </mxCell>
        <mxCell id="QTuUbilTjJERlWPjvQFS-2" value="" style="shape=cylinder3;whiteSpace=wrap;html=1;boundedLbl=1;backgroundOutline=1;size=15;" vertex="1" parent="1">
          <mxGeometry x="1750" y="1316.5" width="240" height="287" as="geometry" />
        </mxCell>
        <mxCell id="QTuUbilTjJERlWPjvQFS-3" value="&lt;font style=&quot;font-size: 45px;&quot;&gt;RDS&lt;/font&gt;" style="text;html=1;align=center;verticalAlign=middle;resizable=0;points=[];autosize=1;strokeColor=none;fillColor=none;" vertex="1" parent="1">
          <mxGeometry x="1810" y="1445" width="120" height="70" as="geometry" />
        </mxCell>
      </root>
    </mxGraphModel>
  </diagram>
</mxfile>
